<svg id="Layer_1" data-name="Layer 1" xmlns="http://www.w3.org/2000/svg" viewBox="0 0 66 66"><defs><style>.cls-1{fill:#fff;}</style></defs><path class="cls-1" d="M10.46,52.6,5.14,33.84a3.51,3.51,0,0,1,.17-2A2.43,2.43,0,0,1,7,30.34l3.64-1.26V16.2a5.62,5.62,0,0,1,5.6-5.6h8.4V5a2.75,2.75,0,0,1,2.8-2.8H38.6A2.75,2.75,0,0,1,41.4,5v5.6h8.4a5.62,5.62,0,0,1,5.6,5.6V29.08L59,30.34A2.53,2.53,0,0,1,60.79,32a3.58,3.58,0,0,1,.07,1.85L55.54,52.6a12.39,12.39,0,0,1-5.18-1.08A18.52,18.52,0,0,1,46,48.75a2.54,2.54,0,0,0-3.64,0A18.52,18.52,0,0,1,38,51.52a12.08,12.08,0,0,1-5,1.08,11.25,11.25,0,0,1-1.33-.07q-.63-.08-1.26-.21a12.88,12.88,0,0,1-3.85-1.47A19.8,19.8,0,0,1,23.2,48.4a2.12,2.12,0,0,0-2.87,0,15.93,15.93,0,0,1-4.55,3.05A12.94,12.94,0,0,1,10.46,52.6ZM33,63.8a23.47,23.47,0,0,1-5.7-.7A24.35,24.35,0,0,1,21.8,61a24.6,24.6,0,0,1-5.46,2.1,23.43,23.43,0,0,1-5.74.7H7.8A2.73,2.73,0,0,1,5,61a2.75,2.75,0,0,1,2.8-2.8h2.8a18.62,18.62,0,0,0,5-.7,18.35,18.35,0,0,0,4.69-2,2.78,2.78,0,0,1,2.94,0,15.27,15.27,0,0,0,3.53,1.61,20.61,20.61,0,0,0,3.82.84c.37,0,.77.08,1.19.1s.82,0,1.19,0a20.71,20.71,0,0,0,5-.63,16.59,16.59,0,0,0,4.69-2,2.78,2.78,0,0,1,2.94,0,16.27,16.27,0,0,0,4.69,2.06,19.4,19.4,0,0,0,5,.67h2.8A2.75,2.75,0,0,1,61,61a2.73,2.73,0,0,1-2.8,2.8H55.4a23.43,23.43,0,0,1-5.74-.7A24.6,24.6,0,0,1,44.2,61a24.35,24.35,0,0,1-5.5,2.1A23.47,23.47,0,0,1,33,63.8ZM16.2,27.26l15.05-4.9a5.61,5.61,0,0,1,3.5,0l15,4.9V16.2H16.2Z"/></svg>