<svg xmlns="http://www.w3.org/2000/svg" viewBox="0 0 108 108"><defs><style>.cls-1{fill:#fff;}</style></defs><g id="Layer_1" data-name="Layer 1"><path class="cls-1" d="M55.2,44.71A5.43,5.43,0,0,1,57,45l15,4.9V38.83H38.4V49.89L53.45,45A5.39,5.39,0,0,1,55.2,44.71Z"/><path class="cls-1" d="M0,0V108H108V0ZM27.51,54.51A2.43,2.43,0,0,1,29.16,53l3.64-1.26V38.83a5.6,5.6,0,0,1,5.6-5.6h8.4v-5.6a2.73,2.73,0,0,1,2.8-2.8H60.8a2.75,2.75,0,0,1,2.8,2.8v5.6H72a5.62,5.62,0,0,1,5.6,5.6V51.71L81.24,53A2.54,2.54,0,0,1,83,54.61a3.73,3.73,0,0,1,.07,1.86L77.74,75.23a12.21,12.21,0,0,1-5.18-1.09,18,18,0,0,1-4.34-2.76,2.54,2.54,0,0,0-3.64,0,18.37,18.37,0,0,1-4.34,2.76,11.93,11.93,0,0,1-5,1.09,11.25,11.25,0,0,1-1.33-.07q-.63-.07-1.26-.21a12.78,12.78,0,0,1-3.85-1.47A19,19,0,0,1,45.4,71,2,2,0,0,0,44,70.47a1.94,1.94,0,0,0-1.43.56,15.83,15.83,0,0,1-4.55,3,13,13,0,0,1-5.32,1.16L27.34,56.47A3.42,3.42,0,0,1,27.51,54.51ZM82.39,85.62a2.7,2.7,0,0,1-2,.81H77.6a23.38,23.38,0,0,1-5.74-.7,24.6,24.6,0,0,1-5.46-2.1,24.72,24.72,0,0,1-5.5,2.1,23.6,23.6,0,0,1-11.41,0A24.46,24.46,0,0,1,44,83.63a25,25,0,0,1-5.46,2.1,23.43,23.43,0,0,1-5.74.7H30a2.71,2.71,0,0,1-2-.81,2.68,2.68,0,0,1-.8-2,2.73,2.73,0,0,1,2.8-2.8h2.8a18.62,18.62,0,0,0,5-.7,18.35,18.35,0,0,0,4.69-2A2.78,2.78,0,0,1,44,77.68a2.83,2.83,0,0,1,1.47.42A14.89,14.89,0,0,0,49,79.71a20.44,20.44,0,0,0,3.82.84c.37,0,.77.08,1.19.1s.81,0,1.19,0a20.71,20.71,0,0,0,5-.63,16.59,16.59,0,0,0,4.69-2,2.78,2.78,0,0,1,1.47-.42,2.83,2.83,0,0,1,1.47.42,16.15,16.15,0,0,0,4.69,2.06,19.4,19.4,0,0,0,5,.67h2.8a2.75,2.75,0,0,1,2.8,2.8A2.68,2.68,0,0,1,82.39,85.62Z"/></g></svg>