<svg xmlns="http://www.w3.org/2000/svg" viewBox="0 0 128 128"><defs><style>.cls-1{fill:#fff;}</style></defs><g id="Icono"><path class="cls-1" d="M64,107a42.12,42.12,0,0,1-16.71-3.35,43.22,43.22,0,0,1-23-23,43.26,43.26,0,0,1,0-33.43,43.36,43.36,0,0,1,23-22.92A42.16,42.16,0,0,1,64.07,21a41.72,41.72,0,0,1,16.67,3.35,43.46,43.46,0,0,1,22.9,23,43.16,43.16,0,0,1,0,33.39,43.3,43.3,0,0,1-22.93,23A41.86,41.86,0,0,1,64,107Zm-5.27-9.54V90a5.17,5.17,0,0,1-5.18-5.18V79.64L30.87,56.92a34.18,34.18,0,0,0-.6,3.79C30.16,61.86,30.1,63,30.1,64a33.2,33.2,0,0,0,8.1,22.09A32.21,32.21,0,0,0,58.77,97.47ZM90.1,85.62a30.37,30.37,0,0,0,3.42-4.78,30.83,30.83,0,0,0,2.41-5.28,34.9,34.9,0,0,0,1.47-5.73A35.36,35.36,0,0,0,97.9,64,33.68,33.68,0,0,0,77.07,32.7v2.58a7.47,7.47,0,0,1-2.32,5.52,7.61,7.61,0,0,1-5.54,2.3H58.77v5.18a5.16,5.16,0,0,1-5.24,5.24H48.35V64h26.1a5.16,5.16,0,0,1,5.25,5.24v10.4h4.42a5.76,5.76,0,0,1,4.26,1.75A5.84,5.84,0,0,1,90.1,85.62Z"/></g></svg>