<svg id="Layer_1" data-name="Layer 1" xmlns="http://www.w3.org/2000/svg" viewBox="0 0 108 108"><defs><style>.cls-1{fill:#e3f2fd;}.cls-2{fill:#2196f3;}</style></defs><rect class="cls-1" width="108" height="108" rx="54"/><path class="cls-2" d="M31.88,53,47.35,30.69a2.2,2.2,0,0,1,1.12-.81,2.17,2.17,0,0,1,1.26,0,2.3,2.3,0,0,1,1.05.7,1.84,1.84,0,0,1,.42,1.26V54.56a2.77,2.77,0,0,1-2.8,2.8H34.19a2.59,2.59,0,0,1-1.47-.42,2.88,2.88,0,0,1-1.33-2.49A2.54,2.54,0,0,1,31.88,53ZM59,57.36a2.49,2.49,0,0,1-2.17-1.09,2.61,2.61,0,0,1-.35-2.41,53.65,53.65,0,0,0,1.19-6.2,51,51,0,0,0,.49-7.1,55.9,55.9,0,0,0-.49-7.32c-.33-2.49-.72-4.75-1.19-6.75a2.1,2.1,0,0,1,0-1.12,1.92,1.92,0,0,1,.6-.84,2.07,2.07,0,0,1,1-.46,1.72,1.72,0,0,1,1.12.18,27.53,27.53,0,0,1,7.52,5.32,41.76,41.76,0,0,1,5.85,7.21,45.59,45.59,0,0,1,4.3,8.4A31.18,31.18,0,0,1,79,54.35a2.49,2.49,0,0,1-.74,2.1,2.79,2.79,0,0,1-2.06.91ZM45.6,72.76A8.45,8.45,0,0,1,42.13,72a12.77,12.77,0,0,1-3-1.92,2.31,2.31,0,0,0-.91-.49,3.32,3.32,0,0,0-1-.14,2.8,2.8,0,0,0-1,.17,2.24,2.24,0,0,0-.8.53,9.1,9.1,0,0,1-1.4,1,16.3,16.3,0,0,1-1.54.81,19.56,19.56,0,0,1-3.19-3,13,13,0,0,1-2.2-3.74,2.29,2.29,0,0,1,.38-2.49,2.92,2.92,0,0,1,2.35-1.15h48.3a2.74,2.74,0,0,1,2.27,1.12,2.62,2.62,0,0,1,.46,2.52,17.57,17.57,0,0,1-2.28,3.74,17.27,17.27,0,0,1-3.11,3A16.3,16.3,0,0,1,74,71.18a9.1,9.1,0,0,1-1.4-1,2.24,2.24,0,0,0-.8-.53,2.8,2.8,0,0,0-1-.17,4.66,4.66,0,0,0-1,.1,2,2,0,0,0-.91.46,13.79,13.79,0,0,1-3,2,8.09,8.09,0,0,1-3.46.77A8.24,8.24,0,0,1,58.86,72a13.74,13.74,0,0,1-3.11-2,1.79,1.79,0,0,0-.81-.49,2.93,2.93,0,0,0-.94-.14,3,3,0,0,0-1,.14,1.81,1.81,0,0,0-.8.49,13.59,13.59,0,0,1-3.12,2A8.17,8.17,0,0,1,45.6,72.76Zm8.4,9.1a18.93,18.93,0,0,1-4.13,1.57,17.47,17.47,0,0,1-8.54,0,18.93,18.93,0,0,1-4.13-1.57,18.93,18.93,0,0,1-4.13,1.57A17.52,17.52,0,0,1,28.8,84a2.75,2.75,0,0,1-2.8-2.8,1.61,1.61,0,0,1,1-1.58,5.86,5.86,0,0,0,1.79-1.22,10.28,10.28,0,0,0,3.67-.67,34.56,34.56,0,0,0,3.47-1.5,3.32,3.32,0,0,1,.63-.21,2.87,2.87,0,0,1,1.26,0,3.32,3.32,0,0,1,.63.21,30.18,30.18,0,0,0,3.46,1.47,11,11,0,0,0,7.35,0,30.33,30.33,0,0,0,3.47-1.47,3.32,3.32,0,0,1,.63-.21,2.87,2.87,0,0,1,1.26,0,3.32,3.32,0,0,1,.63.21,29.6,29.6,0,0,0,3.47,1.47,11,11,0,0,0,7.35,0,31,31,0,0,0,3.46-1.47,4.75,4.75,0,0,1,1.26-.28,11.06,11.06,0,0,1,1.26.28,34.39,34.39,0,0,0,3.46,1.5,10.37,10.37,0,0,0,3.68.67,2.75,2.75,0,0,1,2.8,2.8,1.59,1.59,0,0,1-1,1.57A6,6,0,0,0,79.2,84a17.52,17.52,0,0,1-4.27-.53,18.93,18.93,0,0,1-4.13-1.57,18.93,18.93,0,0,1-4.13,1.57,17.47,17.47,0,0,1-8.54,0A18.93,18.93,0,0,1,54,81.86Z"/></svg>