<svg id="Layer_1" data-name="Layer 1" xmlns="http://www.w3.org/2000/svg" viewBox="0 0 108 108"><defs><style>.cls-1{fill:#e3f2fd;}.cls-2{fill:#2196f3;}</style></defs><rect class="cls-1" width="108" height="108" rx="54"/><path class="cls-2" d="M26,73.6V34.4a5.62,5.62,0,0,1,5.6-5.6H48.4A5.63,5.63,0,0,1,54,34.4V40H76.4A5.63,5.63,0,0,1,82,45.6v28a5.63,5.63,0,0,1-5.6,5.6H31.6A5.62,5.62,0,0,1,26,73.6Zm5.6,0h5.6V68H31.6Zm0-11.2h5.6V56.8H31.6Zm0-11.2h5.6V45.6H31.6Zm0-11.2h5.6V34.4H31.6ZM42.8,73.6h5.6V68H42.8Zm0-11.2h5.6V56.8H42.8Zm0-11.2h5.6V45.6H42.8Zm0-11.2h5.6V34.4H42.8ZM54,73.6H76.4v-28H54v5.6h5.6v5.6H54v5.6h5.6V68H54ZM65.2,56.8V51.2h5.6v5.6Zm0,11.2V62.4h5.6V68Z"/></svg>