<svg id="Layer_1" data-name="Layer 1" xmlns="http://www.w3.org/2000/svg" viewBox="0 0 108 108"><defs><style>.cls-1{fill:#fff;}</style></defs><path class="cls-1" d="M31.46,73.6,26.14,54.84a3.51,3.51,0,0,1,.17-2A2.43,2.43,0,0,1,28,51.34l3.64-1.26V37.2a5.62,5.62,0,0,1,5.6-5.6h8.4V26a2.75,2.75,0,0,1,2.8-2.8H59.6A2.75,2.75,0,0,1,62.4,26v5.6h8.4a5.62,5.62,0,0,1,5.6,5.6V50.08L80,51.34A2.53,2.53,0,0,1,81.79,53a3.58,3.58,0,0,1,.07,1.85L76.54,73.6a12.39,12.39,0,0,1-5.18-1.08A18.52,18.52,0,0,1,67,69.75a2.54,2.54,0,0,0-3.64,0A18.52,18.52,0,0,1,59,72.52a12.08,12.08,0,0,1-5,1.08,11.25,11.25,0,0,1-1.33-.07q-.63-.07-1.26-.21a12.88,12.88,0,0,1-3.85-1.47A19.8,19.8,0,0,1,44.2,69.4a2.12,2.12,0,0,0-2.87,0,15.93,15.93,0,0,1-4.55,3A12.94,12.94,0,0,1,31.46,73.6ZM54,84.8a23.47,23.47,0,0,1-5.7-.7A24.35,24.35,0,0,1,42.8,82a24.6,24.6,0,0,1-5.46,2.1,23.43,23.43,0,0,1-5.74.7H28.8A2.73,2.73,0,0,1,26,82a2.75,2.75,0,0,1,2.8-2.8h2.8a18.62,18.62,0,0,0,5-.7,18.35,18.35,0,0,0,4.69-2,2.78,2.78,0,0,1,2.94,0,15.27,15.27,0,0,0,3.53,1.61,20.61,20.61,0,0,0,3.82.84c.37,0,.77.08,1.19.11l1.19,0a20.71,20.71,0,0,0,5-.63,16.59,16.59,0,0,0,4.69-2,2.78,2.78,0,0,1,2.94,0,16.27,16.27,0,0,0,4.69,2.06,19.4,19.4,0,0,0,5,.67h2.8A2.77,2.77,0,0,1,82,82a2.75,2.75,0,0,1-2.8,2.8H76.4a23.43,23.43,0,0,1-5.74-.7A24.6,24.6,0,0,1,65.2,82a24.35,24.35,0,0,1-5.5,2.1A23.53,23.53,0,0,1,54,84.8ZM37.2,48.26l15-4.9a5.61,5.61,0,0,1,3.5,0l15,4.9V37.2H37.2Z"/></svg>