<svg id="Layer_1" data-name="Layer 1" xmlns="http://www.w3.org/2000/svg" viewBox="0 0 108 108"><defs><style>.cls-1{fill:#e3f2fd;}.cls-2{fill:#2196f3;}</style></defs><rect class="cls-1" width="108" height="108" rx="54"/><path class="cls-2" d="M45.3,62.5,25.15,54.34a2.78,2.78,0,0,1-1.48-1.21,3.33,3.33,0,0,1-.47-1.67,3.16,3.16,0,0,1,.51-1.68,3,3,0,0,1,1.52-1.2L73,30.84a2.67,2.67,0,0,1,1.79-.15,3.29,3.29,0,0,1,1.48.85A3.4,3.4,0,0,1,77.12,33,2.74,2.74,0,0,1,77,34.81L59.22,82.58A3,3,0,0,1,58,84.09a3.16,3.16,0,0,1-1.68.51,3.36,3.36,0,0,1-1.67-.47,2.72,2.72,0,0,1-1.2-1.48Z"/></svg>