<svg id="Layer_1" data-name="Layer 1" xmlns="http://www.w3.org/2000/svg" viewBox="0 0 108 108"><defs><style>.cls-1{fill:#e3f2fd;}.cls-2{fill:#2196f3;}</style></defs><rect class="cls-1" width="108" height="108" rx="54"/><path class="cls-2" d="M54,56.8A2.73,2.73,0,0,1,51.2,54,2.75,2.75,0,0,1,54,51.2,2.77,2.77,0,0,1,56.8,54,2.75,2.75,0,0,1,54,56.8ZM54,82a27.29,27.29,0,0,1-10.92-2.21A28,28,0,0,1,28.2,64.92a28.2,28.2,0,0,1,0-21.84A28,28,0,0,1,43.08,28.21a28.08,28.08,0,0,1,21.84,0A28,28,0,0,1,79.8,43.08a28.2,28.2,0,0,1,0,21.84A28,28,0,0,1,64.92,79.79,27.29,27.29,0,0,1,54,82Zm0-5.6A22.23,22.23,0,0,0,76.4,54,22.23,22.23,0,0,0,54,31.6,22.23,22.23,0,0,0,31.6,54,22.23,22.23,0,0,0,54,76.4Zm0,0A22.23,22.23,0,0,1,31.6,54,22.23,22.23,0,0,1,54,31.6,22.23,22.23,0,0,1,76.4,54,22.23,22.23,0,0,1,54,76.4ZM58.69,60A3.05,3.05,0,0,0,60,58.69l8.19-17.5A1,1,0,0,0,68,40a1,1,0,0,0-1.22-.18L49.31,48A3.05,3.05,0,0,0,48,49.31l-8.19,17.5A1,1,0,0,0,40,68a1,1,0,0,0,1.23.18Z"/></svg>