<svg id="Layer_1" data-name="Layer 1" xmlns="http://www.w3.org/2000/svg" viewBox="0 0 108 108"><defs><style>.cls-1{fill:#e3f2fd;}.cls-2{fill:#2196f3;}</style></defs><rect class="cls-1" width="108" height="108" rx="54"/><path class="cls-2" d="M44.67,82A12.5,12.5,0,0,1,32.22,69.56V44.12a9.62,9.62,0,0,1-4.47-3.38A8.84,8.84,0,0,1,26,35.33,9.29,9.29,0,0,1,35.33,26a9.3,9.3,0,0,1,9.34,9.33,8.91,8.91,0,0,1-1.75,5.41,9.6,9.6,0,0,1-4.48,3.38V69.56A6.22,6.22,0,0,0,49.06,74a6,6,0,0,0,1.83-4.39V38.44A12.48,12.48,0,0,1,63.33,26,12.5,12.5,0,0,1,75.78,38.44V63.88a9.62,9.62,0,0,1,4.47,3.38A8.84,8.84,0,0,1,82,72.67a9.35,9.35,0,1,1-12.44-8.79V38.44a6.23,6.23,0,0,0-12.45,0V69.56A12.48,12.48,0,0,1,44.67,82Z"/></svg>